<svg id="Capa_2" data-name="Capa 2" xmlns="http://www.w3.org/2000/svg" viewBox="0 0 199.25 74.6"><defs><style>.cls-1{fill:#212934;}.cls-2{fill:#58ab6e;}</style></defs><path class="cls-1" d="M1.51,4.36H16V42a57.25,57.25,0,0,0,.72,11.09,7.68,7.68,0,0,0,3,4.75,9.49,9.49,0,0,0,5.62,1.62,8.65,8.65,0,0,0,5.74-1.79,7.54,7.54,0,0,0,2.6-4.72A81.18,81.18,0,0,0,34.15,42V4.36H46.26v37q0,11.1-1.28,16.54a16.19,16.19,0,0,1-6.51,9.35q-5.23,3.92-14.39,3.91-8.58,0-13.5-2.87a15.92,15.92,0,0,1-7-8.05Q1.52,55.09,1.51,42Z"/><path class="cls-1" d="M90.71,46.21l13.35.82q-.72,10.69-6.79,17.42T81.21,71.18q-12.15,0-18.51-9T56.33,37.33q0-15.94,6.32-25t18.75-9q20.59,0,22.42,25.46l-13.21,1q-.52-14.65-9.16-14.66-4.53,0-7.21,4.72T71.57,38.15q0,12.15,2.46,16.71a7.91,7.91,0,0,0,7.37,4.56Q89.31,59.42,90.71,46.21Z"/><path class="cls-1" d="M112.55,4.36h40V15.64H127V30.92h19.87V42.2H127V58.4h25.56V70.17h-40Z"/><path class="cls-2" d="M182.74,31.16H197.5V41.63H182.74V56.57H171.89V41.63H157.14V31.16h14.75V16.22h10.85Z"/></svg>